<svg xmlns="http://www.w3.org/2000/svg" xmlns:xlink="http://www.w3.org/1999/xlink" width="368" height="368" viewBox="0 0 368 368">
  <defs>
    <linearGradient id="linear-gradient" x1="0.308" y1="0.95" x2="0.731" y2="0.051" gradientUnits="objectBoundingBox">
      <stop offset="0" stop-color="#5a60c0"/>
      <stop offset="1" stop-color="#838ff2"/>
    </linearGradient>
    <linearGradient id="linear-gradient-2" x1="0.751" y1="0.071" x2="0.284" y2="0.942" gradientUnits="objectBoundingBox">
      <stop offset="0" stop-color="#8892f0"/>
      <stop offset="1" stop-color="#6a70ce"/>
    </linearGradient>
    <linearGradient id="linear-gradient-3" x1="0.703" y1="0.048" x2="0.316" y2="0.956" gradientUnits="objectBoundingBox">
      <stop offset="0" stop-color="#8f97ec"/>
      <stop offset="1" stop-color="#7880d5"/>
    </linearGradient>
  </defs>
  <circle id="Ellipse_1" data-name="Ellipse 1" cx="184" cy="184" r="184" opacity="0.42" fill="url(#linear-gradient)"/>
  <circle id="Ellipse_2" data-name="Ellipse 2" cx="150.5" cy="150.5" r="150.5" transform="translate(35 35)" opacity="0.42" fill="url(#linear-gradient-2)"/>
  <circle id="Ellipse_3" data-name="Ellipse 3" cx="113.5" cy="113.5" r="113.5" transform="translate(72 72)" opacity="0.35" fill="url(#linear-gradient-3)"/>
  <g id="numbers" transform="translate(105.025 622.01)">
    <path id="Path_4" data-name="Path 4" d="M132.666-511.4a18.526,18.526,0,0,0-3.758,1.5,19.821,19.821,0,0,0-6.33,6.446c-1.012,1.937-4.423,13.354-4.423,14.771a2.342,2.342,0,0,0,2.052,2.139c1.33,0,1.908-1.127,3.729-7.313.954-3.3,2.023-6.59,2.341-7.284a12.016,12.016,0,0,1,11.389-6.417c2.457.26,36.248,10.117,38.531,11.244,4.249,2.139,7.053,7.573,6.157,12.025-.636,3.266-10.233,35.785-11.042,37.549a12.386,12.386,0,0,1-6.128,5.637,10.82,10.82,0,0,1-4.394.665c-2.515-.029-3.266-.231-20.205-5.174-9.683-2.8-18.211-5.405-18.933-5.752a13.921,13.921,0,0,1-5.434-5.608,10.269,10.269,0,0,1-.867-4.278c-.145-2.515-.087-2.8,1.908-9.712a80.921,80.921,0,0,0,2.052-8.007,2.151,2.151,0,0,0-1.908-2.081c-1.59,0-1.994.867-4.307,8.961-2.023,6.966-2.2,7.862-2.2,10.29a15.9,15.9,0,0,0,10,14.829c.867.318,9.394,2.862,18.991,5.665,15.291,4.48,17.748,5.116,20.089,5.261a14.482,14.482,0,0,0,8.643-1.937,16.015,16.015,0,0,0,7.169-8.094c.925-2.312,10.58-35.93,10.926-37.924,1.012-6.244-2.833-13.441-8.758-16.332-1.041-.491-9.683-3.151-20.061-6.157C137.435-512.41,136.828-512.555,132.666-511.4Z" transform="translate(-73.867 0)" fill="#fff"/>
    <path id="Path_5" data-name="Path 5" d="M234.018-426.381a16.854,16.854,0,0,0-3.411,2.226,1.872,1.872,0,0,0,.173,2.544c.636.636,1.445.549,2.4-.289.491-.434.52-.434.376.116-1.185,3.9-5.666,19.569-5.723,19.974a1.9,1.9,0,0,0,1.07,2.081c1.069.52,2.573.434,3.064-.173.434-.491,7.776-25.495,7.747-26.42,0-.636-1.359-1.677-2.139-1.677A16.815,16.815,0,0,0,234.018-426.381Z" transform="translate(-156.979 -59.696)" fill="#fff"/>
    <path id="Path_6" data-name="Path 6" d="M55.562-251.549c-.4.087-8.73,1.445-18.5,3.035-10.782,1.734-18.471,3.093-19.511,3.469A15.984,15.984,0,0,0,7-230.158c0,2.63,1.908,14.482,2.457,15.349a1.854,1.854,0,0,0,2.428.665c1.532-.636,1.561-1.156.462-7.978-.549-3.411-1.012-6.966-1.012-7.891A11.407,11.407,0,0,1,15.18-238.6c2.862-2.544,2.023-2.37,25.061-6.07,16.043-2.6,17.343-2.775,19.222-2.515a11.433,11.433,0,0,1,8.99,6.59c.9,1.879,1.156,3.266,3.873,20.089,1.619,9.944,2.919,18.933,2.948,19.974a11.839,11.839,0,0,1-2.862,7.689,13.988,13.988,0,0,1-5.405,3.411c-.809.231-9.655,1.734-19.685,3.353-17.286,2.8-18.326,2.919-20.292,2.659a11.827,11.827,0,0,1-8.758-6.215c-.78-1.474-1.07-2.688-2.168-9.365a61.869,61.869,0,0,0-1.734-8.383,2.231,2.231,0,0,0-3.151-.145c-.723.78-.665,1.561.549,8.99,1.416,8.961,1.85,10.319,4.249,13.47A16.329,16.329,0,0,0,29.691-179c3.642-.289,37.722-5.955,39.341-6.533a14.632,14.632,0,0,0,6.012-3.873,15.347,15.347,0,0,0,4.6-11.013c-.029-2.139-5.405-36.566-6.186-39.6a18.579,18.579,0,0,0-3.989-6.764,15.646,15.646,0,0,0-10.724-4.8A25.778,25.778,0,0,0,55.562-251.549Z" transform="translate(0 -185.1)" fill="#fff"/>
    <path id="Path_7" data-name="Path 7" d="M283.642-246.591a16.509,16.509,0,0,0-10.811,8.7c-1.445,3.064-1.619,4.278-1.619,12.227v7.342l.809.694a1.73,1.73,0,0,0,2.63.087l.752-.578v-6.128c0-3.382.145-7.024.289-8.151a11.644,11.644,0,0,1,5.376-8.412c2.977-1.908,2.515-1.879,24.57-1.792l19.916.087,1.879.9a11.116,11.116,0,0,1,5.694,5.55l1.1,2.2v41.364l-.9,1.879a12.939,12.939,0,0,1-4.885,5.319c-2.688,1.59-3.671,1.648-24.541,1.561-18.875-.087-19.136-.087-20.639-.723a13.348,13.348,0,0,1-5.665-4.538c-1.85-2.8-1.966-3.44-2.11-12.6-.145-7.862-.173-8.267-.752-8.9-1.214-1.3-3.18-.462-3.555,1.561-.087.549-.116,4.423-.058,8.585.173,8.527.4,9.683,2.457,13.181a16.763,16.763,0,0,0,11.244,7.544c1.33.2,8.7.289,21.535.231l19.482-.087,1.937-.752a16.864,16.864,0,0,0,6.735-4.394,18,18,0,0,0,3.873-7.371c.2-1.012.318-8.151.318-21.361,0-21.795.029-21.477-1.792-25.061a17.756,17.756,0,0,0-7.169-6.908,21.686,21.686,0,0,0-3.7-1.33C323.792-247.141,285.579-247.083,283.642-246.591Z" transform="translate(-187.757 -188.38)" fill="#fff"/>
    <path id="Path_8" data-name="Path 8" d="M363.013-181.55c-3.555.9-5.694,3.382-5.694,6.619,0,1.705.636,2.341,2.37,2.341a2.038,2.038,0,0,0,2.255-1.879c0-1.937,1.416-3.035,3.96-3.035,2.486,0,3.555,1.127,3.555,3.787,0,2.63-1.127,4.018-3.266,4.018a2.935,2.935,0,0,0-1.243.231,2.516,2.516,0,0,0-.838,2.4c.231.983.78,1.3,2.862,1.561,2.6.347,3.729,2.428,3.209,5.839-.4,2.717-3.035,4.1-6.1,3.266-1.416-.4-2.717-1.677-2.717-2.717a2.235,2.235,0,0,0-1.908-2.081c-2.2-.4-3.209.9-2.688,3.382.867,3.989,5.376,6.446,10.666,5.781,3.353-.434,5.376-1.705,6.648-4.278a8.886,8.886,0,0,0,.809-4.162c.145-3.324-.376-4.827-2.2-6.33l-1.156-.983.838-1.041a8.294,8.294,0,0,0,1.705-5.463c0-3.526-1.041-5.434-3.642-6.706A15.506,15.506,0,0,0,363.013-181.55Z" transform="translate(-248.571 -234.748)" fill="#fff"/>
    <path id="Path_9" data-name="Path 9" d="M102.348-176.2c-4.625,1.012-7.4,4.567-6.648,8.5.289,1.619.867,2.2,2.2,2.168a2.361,2.361,0,0,0,2.428-2.573c0-2.37,1.1-3.526,3.555-3.758a3.361,3.361,0,0,1,3.758,1.995c1.127,2.37.231,4.423-3.873,8.758-6.041,6.359-6.562,7.516-5.637,12.372.434,2.2.9,2.775,2.312,2.775.491,0,3.989-.52,7.8-1.127,4.712-.78,7.024-1.272,7.342-1.59a2.655,2.655,0,0,0-.087-3.064c-.694-.752-1.272-.723-7.371.26a52.321,52.321,0,0,1-5.261.723c-.145-.087-.231-.665-.231-1.272,0-1.416,1.012-2.775,5.2-7.082,3.844-3.989,5-6.07,4.972-9.134C112.754-173.832,107.984-177.446,102.348-176.2Z" transform="translate(-62.973 -238.535)" fill="#fff"/>
  </g>
  <g id="Ellipse_4" data-name="Ellipse 4" transform="translate(16 16)" fill="none" stroke="#fff" stroke-width="3" stroke-dasharray="6">
    <ellipse cx="168.5" cy="168" rx="168.5" ry="168" stroke="none"/>
    <ellipse cx="168.5" cy="168" rx="167" ry="166.5" fill="none"/>
  </g>
</svg>
