<svg xmlns="http://www.w3.org/2000/svg" xmlns:xlink="http://www.w3.org/1999/xlink" width="368" height="368" viewBox="0 0 368 368">
  <defs>
    <linearGradient id="linear-gradient" x1="0.308" y1="0.95" x2="0.731" y2="0.051" gradientUnits="objectBoundingBox">
      <stop offset="0" stop-color="#5a60c0"/>
      <stop offset="1" stop-color="#838ff2"/>
    </linearGradient>
    <linearGradient id="linear-gradient-2" x1="0.751" y1="0.071" x2="0.284" y2="0.942" gradientUnits="objectBoundingBox">
      <stop offset="0" stop-color="#8892f0"/>
      <stop offset="1" stop-color="#6a70ce"/>
    </linearGradient>
    <linearGradient id="linear-gradient-3" x1="0.703" y1="0.048" x2="0.316" y2="0.956" gradientUnits="objectBoundingBox">
      <stop offset="0" stop-color="#8f97ec"/>
      <stop offset="1" stop-color="#7880d5"/>
    </linearGradient>
  </defs>
  <g id="Group_11" data-name="Group 11" transform="translate(-30 -95)">
    <circle id="Ellipse_1" data-name="Ellipse 1" cx="184" cy="184" r="184" transform="translate(30 95)" opacity="0.42" fill="url(#linear-gradient)"/>
    <circle id="Ellipse_2" data-name="Ellipse 2" cx="150.5" cy="150.5" r="150.5" transform="translate(65 130)" opacity="0.42" fill="url(#linear-gradient-2)"/>
    <circle id="Ellipse_3" data-name="Ellipse 3" cx="113.5" cy="113.5" r="113.5" transform="translate(102 167)" opacity="0.35" fill="url(#linear-gradient-3)"/>
    <g id="Ellipse_4" data-name="Ellipse 4" transform="translate(46 111)" fill="none" stroke="#fff" stroke-width="3" stroke-dasharray="6">
      <ellipse cx="168.5" cy="168" rx="168.5" ry="168" stroke="none"/>
      <ellipse cx="168.5" cy="168" rx="167" ry="166.5" fill="none"/>
    </g>
    <g id="puzzle" transform="translate(133.664 719.95)">
      <path id="Path_1" data-name="Path 1" d="M343.814-511.419a22.244,22.244,0,0,0-4.569,1.661A18.375,18.375,0,0,0,329-493.532c0,2.6.526,3.821,2.243,5.289a6.229,6.229,0,0,0,4.873,1.44c2.963-.554,5.344-3.129,5.344-5.759a6.37,6.37,0,0,1,6.23-6.563,6.04,6.04,0,0,1,4.652,9.941c-1.246,1.5-2.243,1.966-4.569,2.271-2.991.36-4.957,1.689-5.87,3.9-.637,1.5-.637,12.239,0,13.734a6.32,6.32,0,0,0,11.574,0,10.216,10.216,0,0,0,.443-3.461v-2.437l2.437-1.246A19.105,19.105,0,0,0,365.5-487c.665-1.855.748-2.381.748-6.036s-.083-4.181-.748-6.036a18.209,18.209,0,0,0-4.652-7.282A18.535,18.535,0,0,0,343.814-511.419Zm6.839,4.015a15.774,15.774,0,0,1,7.282,3.987,14.106,14.106,0,0,1,4.292,10.411,14.374,14.374,0,0,1-9.8,13.817c-1.384.5-2.049.914-2.3,1.384a12.246,12.246,0,0,0-.36,3.766c0,3.683-.332,4.375-2.077,4.375a1.708,1.708,0,0,1-1.551-.637c-.471-.582-.526-1.163-.526-5.843,0-6.341-.028-6.286,2.991-6.646a10.322,10.322,0,0,0,9.193-8.529,10.409,10.409,0,0,0-5.759-11.048c-1.412-.692-1.883-.775-4.347-.775-2.492,0-2.935.083-4.4.8a10.7,10.7,0,0,0-5.87,8.362c-.194,2.021-.692,2.8-1.911,3.046a1.787,1.787,0,0,1-1.606-.443c-.665-.526-.748-.775-.748-2.3C333.181-502.365,341.876-509.2,350.653-507.4Z" transform="translate(-228.4 0)" fill="#fff"/>
      <path id="Path_2" data-name="Path 2" d="M23.982-484.532a14.906,14.906,0,0,0-10.633,12.239c-.166,1.44-.249,20.38-.194,55.878l.083,53.718.609,1.828a15.365,15.365,0,0,0,7.2,8.5c2.741,1.44,4.458,1.717,11.242,1.717h6.036l.665-.692a1.774,1.774,0,0,0,0-2.769c-.665-.692-.665-.692-6.59-.692-6.535,0-7.892-.222-10.218-1.717a10.519,10.519,0,0,1-4.624-6.812c-.222-1.025-.3-9.138-.3-26.915v-25.475H28.191c7.393,0,11.131-.111,11.574-.3a2.605,2.605,0,0,0,1.3-2.021,8.186,8.186,0,0,0-1.218-1.938,9.492,9.492,0,0,1-2.326-7.255,8.839,8.839,0,0,1,3.267-7.116,10.213,10.213,0,0,1,14.565.415,10,10,0,0,1,2.824,6.618,9.605,9.605,0,0,1-2.16,7.061c-1.551,2.132-1.689,2.88-.692,3.849l.665.692h22.18v17.472l-.831-.443a14.418,14.418,0,0,0-2.547-.831A14.7,14.7,0,0,0,57.265-382a14.935,14.935,0,0,0,9.775,10.633,15.589,15.589,0,0,0,9.276-.111l1.855-.72V-354.8H45.193l-.665.692a1.774,1.774,0,0,0,0,2.769l.665.692H89.856c38.406,0,44.913-.055,46.408-.415a14.89,14.89,0,0,0,10.661-9.968l.609-1.938v-55.85l-.665-.526c-.609-.5-1.246-.526-13.236-.526H121.063l-.665.692c-.858.858-.858,1.468,0,2.658,2.464,3.406,2.991,4.957,2.852,8.141a8.089,8.089,0,0,1-.969,4.043,10.5,10.5,0,0,1-5.012,4.9c-1.384.665-1.938.748-4.347.748-2.492,0-2.935-.083-4.43-.8a11.533,11.533,0,0,1-5.012-5.012c-.72-1.5-.8-1.938-.8-4.43,0-2.409.083-2.963.72-4.292a14.126,14.126,0,0,1,1.717-2.714c1.163-1.384,1.274-2.16.443-3.212l-.554-.72H82.6v-17.112l1.744.554a16.293,16.293,0,0,0,3.877.582c1.994.055,2.215,0,2.714-.609a2.207,2.207,0,0,0,.111-2.686c-.3-.471-.8-.609-2.409-.748a10.82,10.82,0,0,1-5.815-1.855c-2.049-1.246-2.907-1.357-3.849-.581l-.665.526-.083,10.965-.083,10.965H69.56A77.984,77.984,0,0,1,61-420.1a17.067,17.067,0,0,1,.581-1.717,17.588,17.588,0,0,0,.526-8.058,16.255,16.255,0,0,0-6.562-9.3,14.679,14.679,0,0,0-21.82,8.612,17.855,17.855,0,0,0,.388,8.972c.3.8.581,1.523.581,1.578,0,.083-3.932.138-8.722.138h-8.75l.083-26.388.083-26.361.637-1.578a12.191,12.191,0,0,1,5.15-5.566l1.689-.886,26.638-.083,26.638-.055.083,10.827.083,10.827.775.665c1.052.914,1.523.858,3.378-.415a10.512,10.512,0,0,1,15.589,4.07c.665,1.412.748,1.911.748,4.486,0,2.658-.083,3.046-.8,4.43a15.887,15.887,0,0,1-1.855,2.686c-1.5,1.634-1.412,3.35.194,3.96,1,.388,2.049-.166,3.406-1.744a13.686,13.686,0,0,0,3.35-9.3,13.514,13.514,0,0,0-4.153-10.3A14.717,14.717,0,0,0,83.1-464.041c-.443.166-.471-.554-.554-9.83l-.083-10.024-.665-.526c-.637-.5-1.468-.526-28.521-.5C30.185-484.919,25.173-484.836,23.982-484.532Zm75.787,68.892c0,.028-.277.831-.609,1.717a18.3,18.3,0,0,0-.526,7.947,14.752,14.752,0,0,0,17.86,11.159,15.031,15.031,0,0,0,10.661-10.661,17.544,17.544,0,0,0-.941-9.775c-.194-.443.332-.471,8.556-.471h8.75v25.475c0,17.777-.083,25.89-.3,26.915a10.519,10.519,0,0,1-4.624,6.812c-2.8,1.772-1.717,1.717-30.127,1.717H82.629l-.083-11.187c-.083-10.55-.111-11.214-.609-11.768-.8-.886-2.215-.775-3.434.277a13.992,13.992,0,0,1-2.8,1.744,7.718,7.718,0,0,1-4.181.831,10.072,10.072,0,0,1-8.445-4.181,10.487,10.487,0,0,1,1.246-13.762,10.407,10.407,0,0,1,13.706-.581c2.3,1.744,3.738,1.634,4.292-.36.166-.609.277-5.095.277-11.491v-10.439h8.584C95.92-415.722,99.769-415.695,99.769-415.639Z" transform="translate(0 -19.439)" fill="#fff"/>
      <path id="Path_3" data-name="Path 3" d="M378.7-332.162a5.783,5.783,0,0,0-3.655,2.631,4.769,4.769,0,0,0-.914,3.157,4.458,4.458,0,0,0,.831,3.517,6.231,6.231,0,0,0,11.574-3.3A6.2,6.2,0,0,0,378.7-332.162Zm3.406,4.873a2.236,2.236,0,0,1-1.772,3.323,2.112,2.112,0,0,1-.914-4.015A2.211,2.211,0,0,1,382.1-327.288Z" transform="translate(-261.011 -129.748)" fill="#fff"/>
    </g>
  </g>
</svg>
