<svg xmlns="http://www.w3.org/2000/svg" xmlns:xlink="http://www.w3.org/1999/xlink" width="368" height="368" viewBox="0 0 368 368">
  <defs>
    <linearGradient id="linear-gradient" x1="0.308" y1="0.95" x2="0.731" y2="0.051" gradientUnits="objectBoundingBox">
      <stop offset="0" stop-color="#5a60c0"/>
      <stop offset="1" stop-color="#838ff2"/>
    </linearGradient>
    <linearGradient id="linear-gradient-2" x1="0.703" y1="0.048" x2="0.316" y2="0.956" gradientUnits="objectBoundingBox">
      <stop offset="0" stop-color="#8f97ec"/>
      <stop offset="1" stop-color="#7880d5"/>
    </linearGradient>
  </defs>
  <g id="Group_22" data-name="Group 22" transform="translate(-919 -373)">
    <circle id="Ellipse_1" data-name="Ellipse 1" cx="184" cy="184" r="184" transform="translate(919 373)" opacity="0.42" fill="url(#linear-gradient)"/>
    <path id="Path_21" data-name="Path 21" d="M113.5,0A113.5,113.5,0,1,1,0,113.5,113.5,113.5,0,0,1,113.5,0Z" transform="translate(991 445)" opacity="0.35" fill="url(#linear-gradient-2)"/>
    <g id="Ellipse_4" data-name="Ellipse 4" transform="translate(935 389)" fill="none" stroke="#fff" stroke-width="3" stroke-dasharray="6">
      <ellipse cx="168.5" cy="168" rx="168.5" ry="168" stroke="none"/>
      <ellipse cx="168.5" cy="168" rx="167" ry="166.5" fill="none"/>
    </g>
    <g id="check-_1_" transform="translate(958.862 924.56)">
      <path id="Path_25" data-name="Path 25" d="M134.31-479.226a117.711,117.711,0,0,0-38.872,11.4,110.818,110.818,0,0,0-51.424,51.438c-29.61,59.547-1.772,131.56,60.434,156.241a132.838,132.838,0,0,0,25.56,6.689c7.339,1.064,22.523,1.216,29.61.253A116.165,116.165,0,0,0,207.6-270.786c6.074-3.953,7.137-6.943,3.644-10.389-2.379-2.382-4.2-2.078-10.528,1.926a105.022,105.022,0,0,1-43.124,15.355,133.371,133.371,0,0,1-25.409-.253A102.9,102.9,0,0,1,47-337.378c-7.946-27.67-3.8-58.432,11.034-82.453A102.782,102.782,0,0,1,179.66-463.059c12.957,4.51,28.7,14.291,37.252,23.16l1.923,1.976-3.8,3.75-3.745,3.75-2.683-2.534c-13.514-12.72-29.66-20.626-48.995-24.123-5.821-1.014-23.232-.862-29.61.3-5.922,1.064-15.741,3.953-18.981,5.575a4.818,4.818,0,0,0-2.986,3.142c-.607,1.824-.607,2.23.2,3.953a6,6,0,0,0,2.632,2.737c1.62.76,1.873.76,8.149-1.318a78.578,78.578,0,0,1,20.145-4.257,79.263,79.263,0,0,1,32.039,3.953A81.119,81.119,0,0,1,199.3-426.824l4.454,3.953-29.761,29.8c-16.4,16.42-30.014,29.849-30.268,29.849-.3,0-5.416-4.865-11.439-10.845-12.5-12.416-13.109-12.771-20.2-12.365a15.431,15.431,0,0,0-13.565,8.919c-1.164,2.433-1.417,3.548-1.417,6.943,0,6.842.152,7.044,20.347,27.163,19.689,19.612,19.487,19.46,26.218,19.46,7.086,0,4.707,1.976,43.124-36.387l34.519-34.512.557,1.52a80.812,80.812,0,0,1,4.555,33.65,82.18,82.18,0,0,1-14.577,40.543,97.259,97.259,0,0,1-19.335,19.359,81.281,81.281,0,0,1-72.936,10.541c-38.67-12.974-61.6-53.212-53.3-93.5.4-1.976,1.67-6.436,2.834-10.034,2.025-6.233,2.075-6.487,1.316-8.109a6,6,0,0,0-2.733-2.635c-1.721-.811-2.126-.811-3.948-.2-2.48.861-3.543,2.787-6.023,11.1A82.326,82.326,0,0,0,53.984-369.3a90.355,90.355,0,0,0,28.6,69.987A83.938,83.938,0,0,0,104.7-283.912c14.931,7.4,28.6,10.389,44.541,9.73a91.747,91.747,0,0,0,85.944-111.847,102.989,102.989,0,0,0-3.037-10.642c-2.632-7.095-2.733-6.335,1.518-10.592,2.075-2.027,4-3.6,4.3-3.446.81.557,5.568,13.024,6.884,18.193a88.124,88.124,0,0,1,3.189,23.261c.3,10.085-.2,16.622-1.974,24.782a110,110,0,0,1-14.02,34.056c-3.644,5.777-3.948,7.7-1.62,10.034,4.606,4.662,8.554,1.216,16.5-14.443a113.842,113.842,0,0,0,1.468-99.583l-2.379-5.118,5.568-5.676c6.529-6.639,7.491-8.565,7.491-14.545a14.319,14.319,0,0,0-4.1-10.642,15.62,15.62,0,0,0-11.844-5.068c-5.163,0-8.25,1.47-12.957,6.132l-3.594,3.547-4.5-4.1a113.042,113.042,0,0,0-59.928-28.633A155.037,155.037,0,0,0,134.31-479.226ZM246.269-443.8a5.855,5.855,0,0,1,2.227,5.423c-.456,1.723-100.976,102.674-103.153,103.586a5.232,5.232,0,0,1-2.784.2C140.738-335,109.2-366.315,108.142-368.7a5.243,5.243,0,0,1,5.061-7.2c2.025,0,2.379.3,15.033,12.923l12.957,12.923H146.2l47.325-47.384,47.325-47.384h2.075A5.251,5.251,0,0,1,246.269-443.8Z" transform="translate(0)" fill="#fff"/>
      <path id="Path_26" data-name="Path 26" d="M399.6-114.351c-3.387,1.893-3.288,7.571.2,9.165a4.756,4.756,0,0,0,6.027-1.1A5.123,5.123,0,0,0,399.6-114.351Z" transform="translate(-179.579 -179.038)" fill="#fff"/>
    </g>
  </g>
</svg>
